<?xml version="1.0" standalone="no"?>
<!DOCTYPE svg PUBLIC "-//W3C//DTD SVG 1.1//EN" "http://www.w3.org/Graphics/SVG/1.1/DTD/svg11.dtd" >
<svg xmlns="http://www.w3.org/2000/svg" xmlns:xlink="http://www.w3.org/1999/xlink" version="1.1">
<metadata></metadata>
<defs>
<font id="depixelbold" horiz-adv-x="1859" >
<font-face units-per-em="2048" ascent="1638" descent="-410" />
<missing-glyph horiz-adv-x="698" />
<glyph horiz-adv-x="0" />
<glyph unicode="&#xd;" horiz-adv-x="698" />
<glyph horiz-adv-x="0" />
<glyph horiz-adv-x="0" />
<glyph unicode=" "  horiz-adv-x="698" />
<glyph unicode="&#x09;" horiz-adv-x="698" />
<glyph unicode="&#xa0;" horiz-adv-x="698" />
<glyph unicode="!" horiz-adv-x="698" d="M0 0v465h465v-465h-465zM0 696v1397h465v-1397h-465z" />
<glyph unicode="&#x22;" horiz-adv-x="929" d="M0 1626v467h233v-465zM465 1626v467h233v-465z" />
<glyph unicode="#" horiz-adv-x="1394" d="M0 1395v233h231v232h234v233h696v-233h-465v-1860h-465v1395h-231z" />
<glyph unicode="$" horiz-adv-x="2088" d="M0 231v234l236 -2l-5 -232h467v699h-465v231h-233v465h231v234h465v233h465v-233h465v-232h-465v-465h465v-233h234v-697h-232v-233h-465v-233h-465v233h-467v231h-231zM465 1395h231l2 233h-233v-233zM1161 231h234v467h-234v-467zM1628 1395v233h232v-233h-232z" />
<glyph unicode="%" horiz-adv-x="2093" d="M0 0v231h231v234h234v-232h-232v-233h-233zM0 1395v231h231v-231h-231zM231 1628v232h234v-232h233v-233h-233v233h-234zM233 1161v234h232v-234h-232zM465 465v231h231v234h234v-232h-232v-233h-233zM930 930v231h231v234h234v-232h-232v-233h-233zM1161 231v234h234 v-232h233v-233h-233v231h-234zM1395 465v233h231v-233h-231zM1395 1395v231h231v234h234v-232h-232v-233h-233zM1628 233v232h232v-234z" />
<glyph unicode="&#x26;" horiz-adv-x="2093" d="M0 233v930h231v232h-231v465h231v233h930v-233h234v-465h-465v465h-465v-465h231v-232h-231v-930h465v930h698v-233h-233v-697h-234v-233h-930v233h-231zM1628 1163v465h232v-465h-232z" />
<glyph unicode="'" horiz-adv-x="464" d="M0 1626v467h233v-465z" />
<glyph unicode="(" horiz-adv-x="698" d="M0 231v1395h231v-1393h234v-233h-232v231h-233zM231 1628v232h234v-232h-234z" />
<glyph unicode=")" horiz-adv-x="698" d="M0 0v231h233v-231h-233zM0 1626v234h231v-232h234v-1395h-232v1393h-233z" />
<glyph unicode="*" horiz-adv-x="929" d="M0 930v231h233v-231h-233zM0 1395v233h231v-233h-231zM233 1163v232h232v-232h233v-233h-233v233h-232zM465 1395v233h233v-233h-233z" />
<glyph unicode="+" d="M0 698v232h696v696h234v-696h698v-232h-698v-698h-232v698h-698z" />
<glyph unicode="," horiz-adv-x="698" d="M0 0v465h465v-696h-234v231h-231zM0 -231h231v-234h-231v234z" />
<glyph unicode="-" horiz-adv-x="1163" d="M0 465v233h930v-233h-930z" />
<glyph unicode="." horiz-adv-x="698" d="M0 0v465h465v-465h-465z" />
<glyph unicode="/" horiz-adv-x="1394" d="M0 231h231v465h234v-463h-232v-466h-233v464zM465 698v463h231v465h234v-463h-232v-465h-233zM930 1626v465h233v-465h-233z" />
<glyph unicode="0" d="M0 233v1627h233v233h930v-233h232v-1627h-232v-233h-930v233h-233zM465 233h465v697h-234v-232h-231v-465zM465 1163h231v232h234v465h-465v-697z" />
<glyph unicode="1" horiz-adv-x="1394" d="M0 1626v234h465v231h465v-2091h-465v1626h-465z" />
<glyph unicode="2" d="M0 0v465h231v231h234v234h231v231h234v699h-699v231h930v-231h234v-699h-234v-231h-231v-234h-234v-231h-231v-234h930v-231h-1395zM0 1626v234h231v-234h-231z" />
<glyph unicode="3" horiz-adv-x="1628" d="M0 231v234h231v-234h699v930h-699v234h234v231h231v234h-696v231h1395v-231h-234v-234h-231v-231h231v-234h234v-930h-234v-231h-930v231h-231z" />
<glyph unicode="4" d="M0 698v465h231v-233h699v698h-234v232h234v233h465v-1163h231v-232h-231v-698h-465v698h-930zM231 1163v232h234v-232h-234zM465 1395v233h231v-233h-231z" />
<glyph unicode="5" d="M0 233v232h231v-232h699v930h-930v930h1395v-233h-930v-465h696v-232h234v-930h-234v-233h-930v233h-231z" />
<glyph unicode="6" d="M0 233v1395h231v232h234v233h696v-233h-465v-232h-231v-233h696v-232h234v-930h-234v-233h-930v233h-231zM465 233h465v930h-465v-930z" />
<glyph unicode="7" d="M0 1860v233h1395v-930h-234v-233h-231v-930h-465v930h231v233h234v697h-930z" />
<glyph unicode="8" d="M0 233v930h231v232h-231v465h231v233h930v-233h234v-465h-234v-232h234v-930h-234v-233h-930v233h-231zM465 233h465v930h-465v-930zM465 1395h465v465h-465v-465z" />
<glyph unicode="9" d="M0 930v930h231v233h930v-233h234v-1395h-234v-232h-231v-233h-699v233h465v232h234v233h-699v232h-231zM465 930h465v930h-465v-930z" />
<glyph unicode=":" horiz-adv-x="698" d="M0 0v465h465v-465h-465zM0 1161v467h465v-465z" />
<glyph unicode=";" horiz-adv-x="698" d="M0 0v465h465v-696h-234v231h-231zM0 -231h231v-234h-231v234zM0 1161v467h465v-465z" />
<glyph unicode="&#x3c;" horiz-adv-x="1163" d="M0 698v232h231v231h234v-696h231v-232h234v-233h-232v231h-233v234h-232v233h-233zM465 1163v232h231v233h234v-233h-232v-232h-233z" />
<glyph unicode="=" horiz-adv-x="1628" d="M0 465v233h1395v-233h-1395zM0 930v233h1395v-233h-1395z" />
<glyph unicode="&#x3e;" horiz-adv-x="1163" d="M0 0v231h231v-231h-231zM0 1395v233h231v-233h234v-232h231v-233h234v-232h-234v-233h-231v696h-234v234h-231zM231 233v232h234v-232h-234z" />
<glyph unicode="?" horiz-adv-x="1628" d="M0 1628v232h231v-232h-231zM231 0v465h465v-465h-465zM231 696v467h234v232h231v465h-465v233h699v-233h231v-697h-231v-233h-234v-234h-465z" />
<glyph unicode="@" horiz-adv-x="2557" d="M0 465v930h231v-930h234v-232h1161v-233h-1161v233h-234v232h-231zM231 1395v233h234v-233h-234zM465 698v465h233v-465h465v-233h-465v233h-233zM465 1628v232h1161v-232h234v-233h231v-697h-231v697h-234v233h-1161zM698 1163v232h697v-697h465v-233h-465v233h-232v465 h-465z" />
<glyph unicode="A" d="M0 0v1860h231v233h930v-233h234v-1860h-465v930h-465v-930h-465zM465 1163h465v697h-465v-697z" />
<glyph unicode="B" d="M0 0v2093h1161v-233h234v-697h-234v-233h234v-697h-234v-233h-1161zM465 233h465v697h-465v-697zM465 1163h465v697h-465v-697z" />
<glyph unicode="C" horiz-adv-x="1628" d="M0 233v1627h231v233h930v-233h234v-232h-234v232h-696v-1627h696v-233h-930v233h-231zM1161 233v232h234v-232h-234z" />
<glyph unicode="D" d="M0 0v2093h1161v-233h234v-1627h-234v-233h-1161zM465 233h465v1627h-465v-1627z" />
<glyph unicode="E" horiz-adv-x="1628" d="M0 0v2093h1161v-233h-696v-697h465v-233h-465v-697h696v-233h-1161z" />
<glyph unicode="F" horiz-adv-x="1628" d="M0 0v2093h1161v-233h-696v-697h465v-233h-465v-930h-465z" />
<glyph unicode="G" d="M0 233v1627h231v233h930v-233h234v-232h-234v232h-696v-1627h465v697h-234v233h699v-930h-234v-233h-930v233h-231z" />
<glyph unicode="H" d="M0 0v2093h465v-930h465v930h465v-2093h-465v930h-465v-930h-465z" />
<glyph unicode="I" horiz-adv-x="1394" d="M0 0v231h231v1629h-231v231h930v-231h-234v-1627h234v-233h-930z" />
<glyph unicode="J" horiz-adv-x="1628" d="M-233 -233v466h464v-466h465v2326h467v-2326l-233 2v-234h-930v232h-233z" />
<glyph unicode="K" horiz-adv-x="2093" d="M0 0v2093h465v-698h231v233h234v232h231v233h467v-233h-233v-232h-232v-233h-233v-232h-234v-233h234v-234h231v-231h234v-232h231v-233h-465v233h-231v232h-234v233h-231v-698h-465z" />
<glyph unicode="L" horiz-adv-x="1394" d="M0 0v2093h465v-1860h698v-233h-1163z" />
<glyph unicode="M" horiz-adv-x="2789" d="M0 0v2093h233v-233h232v-232h233v-233h232v-232h465v232h233v233h232v232h233v233h231v-2093h-464v1163h-232v-233h-233v-232h-232v-233h-233v233h-232v232h-233v233h-232v-1163h-233z" />
<glyph unicode="N" horiz-adv-x="2093" d="M0 0v2093h233v-233h232v-232h233v-233h232v-232h233v-233h232v1163h233v-2093h-233v233h-232v232h-233v233h-232v232h-233v233h-232v-1163h-233z" />
<glyph unicode="O" d="M0 233v1627h233v233h930v-233h232v-1627h-232v-233h-930v233h-233zM465 233h465v1627h-465v-1627z" />
<glyph unicode="P" d="M0 0v2093h1163v-233h232v-697h-232v-233h-698v-930h-465zM465 1163h465v697h-465v-697z" />
<glyph unicode="Q" d="M0 233v1627h231v231h930v-231h234v-1627h-234v-464h234v-234h-465v234h-234v231h-465v233h-231zM465 233h465v1627h-465v-1627z" />
<glyph unicode="R" d="M0 0v2093h1161v-233h234v-697h-234v-233h234v-930h-465v930h-465v-930h-465zM465 1163h465v697h-465v-697z" />
<glyph unicode="S" horiz-adv-x="1628" d="M0 233v232h231v-232h465v465h-231v232h-234v233h-231v697h231v233h699v-233h231v-232h-231v232h-465v-465h231v-232h234v-233h231v-697h-231v-233h-699v233h-231z" />
<glyph unicode="T" horiz-adv-x="1394" d="M-233 1860v233h1394v-233h-465v-1860h-465v1860h-464z" />
<glyph unicode="U" d="M0 233v1860h465v-1860h465v1860h465v-1860h-234v-233h-930v233h-231z" />
<glyph unicode="V" d="M0 465v1628h465v-1628h465v1628h465v-1628h-234v-232h-231v-233h-465v233h-234v232h-231z" />
<glyph unicode="W" horiz-adv-x="2789" d="M0 698v1395h465v-1628h465v-232h-465v232h-234v233h-231zM930 465v1628h465v-1628h465v-232h-465v232h-465zM1860 465v1628h464v-1395h-233v-233h-231z" />
<glyph unicode="X" d="M0 0v698h231v232h234v233h-234v232h-231v698h465v-698h465v698h465v-698h-234v-232h-231v-233h231v-232h234v-698h-465v698h-465v-698h-465z" />
<glyph unicode="Y" d="M0 1163v930h465v-930h465v930h465v-930h-234v-233h-231v-930h-465v930h-234v233h-231z" />
<glyph unicode="Z" d="M0 0v698h231v232h234v233h231v232h234v465h-930v233h1395v-698h-234v-232h-231v-233h-234v-232h-231v-465h930v-233h-1395z" />
<glyph unicode="[" horiz-adv-x="698" d="M0 -465v2556h465v-231h-234v-2093h234v-232h-465z" />
<glyph unicode="\" horiz-adv-x="1394" d="M0 1626v465h231v-463h234v-465h231v-465h234v-465h233v-466h-233v464h-232v465h-233v465h-232v465h-233z" />
<glyph unicode="]" horiz-adv-x="698" d="M0 -233h233v2093h-233v231h465v-2556h-465v232z" />
<glyph unicode="^" horiz-adv-x="1394" d="M0 1161v234h231v231h234v-231h-232v-234h-233zM465 1626v234h231v-234h-231zM698 1395v231h232v-231h233v-234h-233v234h-232z" />
<glyph unicode="_" horiz-adv-x="929" d="M0 -231h930v-234h-930v234z" />
<glyph unicode="`" horiz-adv-x="0" d="M0 2093v231h231v-231h-231zM233 1860v233h232v-233h233v-232h-233v232h-232z" />
<glyph unicode="a" d="M0 233v697h231v233h-231v232h231v-232h699v232h-699v233h930v-233h234v-1395h-1164v233h-231zM465 233h465v697h-465v-697z" />
<glyph unicode="b" d="M0 0v2093h465v-465h696v-233h234v-1162h-234v-233h-1161zM465 233h465v1162h-465v-1162z" />
<glyph unicode="c" horiz-adv-x="1394" d="M0 233v1162h231v233h699v-233h231v-232h-231v232h-465v-1162h465v-233h-699v233h-231zM930 233v232h231v-232h-231z" />
<glyph unicode="d" d="M0 233v1162h231v233h699v465h465v-2093h-1164v233h-231zM465 233h465v1162h-465v-1162z" />
<glyph unicode="e" d="M0 233v1162h231v233h930v-233h234v-697h-930v-465h696v-233h-930v233h-231zM465 930h465v465h-465v-465zM1161 233v232h234v-232h-234z" />
<glyph unicode="f" horiz-adv-x="1394" d="M0 1395v233h231v232h234v233h696v-233h-465v-232h234v-233h-234v-1395h-465v1395h-231z" />
<glyph unicode="g" d="M0 -231h231v-234h699v465h-699v233h-231v1162h231v233h1164v-2093h-234v-231h-930v231h-231v234zM465 233h465v1162h-465v-1162z" />
<glyph unicode="h" d="M0 0v2093h465v-465h696v-233h234v-1395h-465v1395h-465v-1395h-465z" />
<glyph unicode="i" horiz-adv-x="929" d="M0 0v1628h465v-1628h-465zM0 1860v233h465v-233h-465z" />
<glyph unicode="j" horiz-adv-x="1394" d="M-233 0h233v-231h465v1859h465v-1859h-234v-234h-696v234h-233v231zM465 1860v233h465v-233h-465z" />
<glyph unicode="k" horiz-adv-x="1628" d="M0 0v2093h465v-930h231v232h234v233h465v-233h-234v-232h-231v-233h-234v-232h234v-233h231v-232h234v-233h-465v233h-234v232h-231v-465h-465z" />
<glyph unicode="l" horiz-adv-x="929" d="M0 0v2093h465v-2093h-465z" />
<glyph unicode="m" horiz-adv-x="2789" d="M0 0v1628h2091v-233h233v-1395h-464v1395h-465v-1395h-465v1395h-465v-1395h-465z" />
<glyph unicode="n" d="M0 0v1628h1161v-233h234v-1395h-465v1395h-465v-1395h-465z" />
<glyph unicode="o" d="M0 233v1162h231v233h930v-233h234v-1162h-234v-233h-930v233h-231zM465 233h465v1162h-465v-1162z" />
<glyph unicode="p" d="M0 -465v2093h1161v-233h234v-1162h-234v-233h-696v-465h-465zM465 233h465v1162h-465v-1162z" />
<glyph unicode="q" d="M0 233v1162h231v233h1164v-2093h-465v465h-699v233h-231zM465 233h465v1162h-465v-1162z" />
<glyph unicode="r" horiz-adv-x="1394" d="M0 0v1628h465v-233h231v-232h-231v-1163h-465zM696 1395v231h465v-231h-465z" />
<glyph unicode="s" horiz-adv-x="1628" d="M0 233v232h231v-232h465v232h-231v233h-234v232h-231v465h231v233h699v-233h231v-232h-231v232h-465v-232h231v-233h234v-232h231v-465h-231v-233h-699v233h-231z" />
<glyph unicode="t" horiz-adv-x="1394" d="M0 1395v233h231v465h465v-465h234v-233h-234v-1162h234v-233h-465v233h-234v1162h-231z" />
<glyph unicode="u" d="M0 233v1395h465v-1395h465v1395h465v-1628h-1164v233h-231z" />
<glyph unicode="v" d="M0 465v1163h465v-1163h465v1163h465v-1163h-234v-232h-231v-233h-465v233h-234v232h-231z" />
<glyph unicode="w" horiz-adv-x="2789" d="M0 465v1163h465v-1395h465v-233h-465v233h-234v232h-231zM930 233v1395h465v-1395h465v-233h-465v233h-465zM1860 233v1395h464v-1163h-233v-232h-231z" />
<glyph unicode="x" d="M0 0v465h231v233h234v230h-234v233h-231v465h465v-465h465v465h465v-465h-234v-231h-231v-232h231v-233h234v-465h-465v465h-465v-465h-465z" />
<glyph unicode="y" d="M0 -231h231v-234h699v465h-699v233h-231v1395h465v-1395h465v1395h465v-2093h-234v-231h-930v231h-231v234z" />
<glyph unicode="z" d="M0 0v465h231v233h234v232h231v233h234v232h-930v233h1395v-465h-234v-233h-231v-232h-234v-233h-231v-232h930v-233h-1395z" />
<glyph unicode="{" horiz-adv-x="929" d="M0 465v930h231v-930h-231zM231 1395v465h234v-465h-234zM233 0v465h232v-465h233v-233h-233v233h-232zM465 1860v231h233v-231h-233z" />
<glyph unicode="|" horiz-adv-x="464" d="M0 -465v2558h233v-2558h-233z" />
<glyph unicode="}" horiz-adv-x="929" d="M0 0h231v465h234v-465h-232v-233h-233v233zM0 1860v231h231v-231h-231zM233 1395v465h232v-465h233v-930h-233v930h-232z" />
<glyph unicode="~" horiz-adv-x="1394" d="M0 1395v231h231v234h465v-234h-463v-231h-233zM698 1395v231h463v234h234v-234h-232v-231h-465z" />
<glyph unicode="&#xa1;" horiz-adv-x="698" d="M0 0v1395h465v-1395h-465zM0 1628v465h465v-465h-465z" />
<glyph unicode="&#xa2;" horiz-adv-x="2093" d="M1626 231v234h234v-234h-234zM1626 1163v232h234v-232h-234z" />
<glyph unicode="&#xa4;" d="M0 698v232h231v233h-231v232h231v465h234v233h930v-233h231v-232h-231v232h-699v-465h699v-232h-699v-233h465v-232h-465v-465h699v-233h-930v233h-234v465h-231zM1395 233v232h231v-232h-231z" />
<glyph unicode="&#xa5;" horiz-adv-x="561" />
<glyph unicode="&#xa7;" horiz-adv-x="901" />
<glyph unicode="&#xa8;" horiz-adv-x="0" d="M0 1860v231h465v-231h-465zM930 1860v231h465v-231h-465z" />
<glyph unicode="&#xa9;" horiz-adv-x="1394" d="M0 930v930h231v-930h-231zM231 1860v233h465v-233h-465zM233 696v234h465v-234h-465zM465 1161v465h231v-463h467v-233h-465v231h-233zM696 1626v2h2v-2h-2zM698 1628v232h465v-232h-465z" />
<glyph unicode="&#xab;" horiz-adv-x="2324" d="M0 698v232h231v231h234v234h231v233h465v-233h-231v-232h-234v-233h-231v-232h231v-233h234v-232h231v-233h-465v231h-231v234h-234l2 233h-233zM930 698v232h231v231h234v234h231v233h465v-233h-231v-232h-234v-233h-231v-232h231v-233h234v-232h231v-233h-465v231h-231 v234h-234l2 233h-233z" />
<glyph unicode="&#xad;" horiz-adv-x="1163" d="M0 465v233h930v-233h-930z" />
<glyph unicode="&#xae;" horiz-adv-x="1394" d="M0 930v930h231v-930h-231zM231 1860v233h699v-233h233v-232h-233v232h-234v-232h234v-233h233v-465h-233v465h-232v-234h-233v699h-234zM233 696v234h697v-234h-697z" />
<glyph unicode="&#xb0;" horiz-adv-x="929" d="M231 1626v234h234v-234h233v-231h-233v231h-234zM465 1860v231h231v-231h-231zM698 1626v234h232v-234h-232z" />
<glyph unicode="&#xb4;" horiz-adv-x="0" d="M0 1628v232h231v233h234v-233h-232v-232h-233zM465 2093v231h233v-231h-233z" />
<glyph unicode="&#xb5;" horiz-adv-x="4648" d="M0 0v1628h3951v-233h233v-1395h-465v1395h-465v-1395h-465v1395h-465v-1395h-464v1395h-465v-1395h-465v1395h-465v-1395h-465z" />
<glyph unicode="&#xb6;" horiz-adv-x="1282" d="M172 987l21 125l30 76l58 63l65 52l78 32l172 23h424v-86h-62v-1591h-90v1591h-301v-1591h-90v954l-90 20l-102 54l-66 77l-37 95z" />
<glyph unicode="&#xb7;" horiz-adv-x="698" d="M0 696v467h465v-465z" />
<glyph unicode="&#xb8;" horiz-adv-x="0" d="M231 -231h234v-234h-234v234zM465 0h233v-231h-233v231z" />
<glyph unicode="&#xbb;" horiz-adv-x="2324" d="M0 0v231h231v234h234v231h233v234h-233v231h-232v234h-233v233h465v-233h231v-232h234v-233h231v-232h-231v-233h-232v-232h-233v-233h-465zM930 0v231h231v234h234v231h233v234h-233v231h-232v234h-233v233h465v-233h231v-232h234v-233h231v-232h-231v-233h-232v-232 h-233v-233h-465z" />
<glyph unicode="&#xbf;" horiz-adv-x="1628" d="M0 233v232h231v-232h465v465h-231v232h-234v465h465v-232h234v-233h231v-697h-231v-233h-699v233h-231zM231 1628v465h465v-465h-465z" />
<glyph unicode="&#xc0;" d="M0 0v1860h231v233h930v-233h234v-1860h-465v930h-465v-930h-465zM463 2558v231h231v-231h-231zM465 1163h465v697h-465v-697zM696 2325v233h232v-233h233v-232h-233v232h-232z" />
<glyph unicode="&#xc1;" d="M0 0v1860h231v233h930v-233h234v-1860h-465v930h-465v-930h-465zM231 2093v232h231v233h234v-233h-232v-232h-233zM465 1163h465v697h-465v-697zM696 2558v231h233v-231h-233z" />
<glyph unicode="&#xc2;" d="M0 0v1860h231v233h930v-233h234v-1860h-465v930h-465v-930h-465zM231 2093v231h234v-231h-234zM465 1163h465v697h-465v-697zM465 2326v231h465v-231h233v-233h-233v233h-465z" />
<glyph unicode="&#xc3;" d="M0 0v1860h231v233h930v-233h234v-1860h-465v930h-465v-930h-465zM0 2093v234h231v231h465v-231h-463v-234h-233zM465 1163h465v697h-465v-697zM698 2093v234h463v231h234v-231h-232v-234h-465z" />
<glyph unicode="&#xc4;" d="M0 0v1860h231v233h930v-233h234v-1860h-465v930h-465v-930h-465zM0 2325v231h465v-231h-465zM465 1163h465v697h-465v-697zM930 2325v231h465v-231h-465z" />
<glyph unicode="&#xc5;" d="M0 0v1860h231v233h930v-233h234v-1860h-465v930h-465v-930h-465zM231 2324v234h234v-234h233v-231h-233v231h-234zM465 1163h465v697h-465v-697zM465 2558v231h231v-231h-231zM698 2324v234h232v-234h-232z" />
<glyph unicode="&#xc6;" horiz-adv-x="2557" d="M0 0v1860h231v233h1860v-233h-696v-697h465v-233h-465v-697h696v-233h-1161v930h-465v-930h-465zM465 1163h465v697h-465v-697z" />
<glyph unicode="&#xc7;" horiz-adv-x="1628" d="M0 233v1627h231v233h930v-233h234v-232h-234v232h-696v-1627h696v-233h-930v233h-231zM462 -231h234v-234h-234v234zM696 0h233v-231h-233v231zM1161 233v232h234v-232h-234z" />
<glyph unicode="&#xc8;" horiz-adv-x="1628" d="M0 0v2093h1161v-233h-696v-697h465v-233h-465v-697h696v-233h-1161zM231 2558v231h231v-231h-231zM464 2325v233h232v-233h233v-232h-233v232h-232z" />
<glyph unicode="&#xc9;" horiz-adv-x="1628" d="M0 0v2093h1161v-233h-696v-697h465v-233h-465v-697h696v-233h-1161zM233 2093v232h231v233h234v-233h-232v-232h-233zM698 2558v231h233v-231h-233z" />
<glyph unicode="&#xca;" horiz-adv-x="1628" d="M0 0v2093h1161v-233h-696v-697h465v-233h-465v-697h696v-233h-1161zM225 2325v231h234v-231h-234zM459 2558v231h465v-231h233v-233h-233v233h-465z" />
<glyph unicode="&#xcb;" horiz-adv-x="1628" d="M0 0v2093h1161v-233h-696v-697h465v-233h-465v-697h696v-233h-1161zM0 2324v232h465v-232h-465zM696 2324v232h465v-232h-465z" />
<glyph unicode="&#xcc;" horiz-adv-x="1394" d="M0 0v231h231v1629h-231v231h930v-231h-234v-1627h234v-233h-930zM231 2558v231h231v-231h-231zM464 2325v233h232v-233h233v-232h-233v232h-232z" />
<glyph unicode="&#xcd;" horiz-adv-x="1394" d="M0 0v231h231v1629h-231v231h930v-231h-234v-1627h234v-233h-930zM227 2093v232h231v233h234v-233h-232v-232h-233zM692 2558v231h233v-231h-233z" />
<glyph unicode="&#xce;" horiz-adv-x="1394" d="M0 0v231h231v1629h-231v231h930v-231h-234v-1627h234v-233h-930zM2 2325v231h234v-231h-234zM236 2558v231h465v-231h233v-233h-233v233h-465z" />
<glyph unicode="&#xcf;" horiz-adv-x="1394" d="M0 0v231h231v1629h-231v231h930v-231h-234v-1627h234v-233h-930zM0 2324v232h465v-232h-465zM692 2324v232h465v-232h-465z" />
<glyph unicode="&#xd0;" d="M-233 930v233h233v930h1161v-233h234v-1627h-234v-233h-1161v930h-233zM465 233h465v1627h-465v-697h231v-233h-231v-697z" />
<glyph unicode="&#xd1;" horiz-adv-x="2093" d="M0 0v2093h233v-233h232v-232h233v-233h232v-232h233v-233h232v1163h233v-2093h-233v233h-232v232h-233v233h-232v232h-233v233h-232v-1163h-233zM229 2091v234h231v231h465v-231h-463v-234h-233zM927 2091v234h463v231h234v-231h-232v-234h-465z" />
<glyph unicode="&#xd2;" d="M0 233v1627h233v233h930v-233h232v-1627h-232v-233h-930v233h-233zM465 233h465v1627h-465v-1627zM465 2558v231h231v-231h-231zM698 2325v233h232v-233h233v-232h-233v232h-232z" />
<glyph unicode="&#xd3;" d="M0 233v1627h233v233h930v-233h232v-1627h-232v-233h-930v233h-233zM233 2093v232h231v233h234v-233h-232v-232h-233zM465 233h465v1627h-465v-1627zM698 2558v231h233v-231h-233z" />
<glyph unicode="&#xd4;" d="M0 233v1627h233v233h930v-233h232v-1627h-232v-233h-930v233h-233zM231 2325v231h234v-231h-234zM465 233h465v1627h-465v-1627zM465 2558v231h465v-231h233v-233h-233v233h-465z" />
<glyph unicode="&#xd5;" d="M0 233v1627h233v233h930v-233h232v-1627h-232v-233h-930v233h-233zM0 2091v234h231v231h465v-231h-463v-234h-233zM465 233h465v1627h-465v-1627zM698 2091v234h463v231h234v-231h-232v-234h-465z" />
<glyph unicode="&#xd6;" d="M0 233v1627h233v233h930v-233h232v-1627h-232v-233h-930v233h-233zM0 2325v231h465v-231h-465zM465 233h465v1627h-465v-1627zM930 2325v231h465v-231h-465z" />
<glyph unicode="&#xd8;" d="M0 0h233v-233h-233v233zM0 233v1627h233v233h1160v234h233v-234h-231v-1860h-232v-233h-930v233h-233zM465 233h465v701h-234v463h234v463h-465v-928h231v-463h-231v-236z" />
<glyph unicode="&#xd9;" d="M0 233v1860h465v-1860h465v1860h465v-1860h-234v-233h-930v233h-231zM465 2558v231h231v-231h-231zM698 2325v233h232v-233h233v-232h-233v232h-232z" />
<glyph unicode="&#xda;" d="M0 233v1860h465v-1860h465v1860h465v-1860h-234v-233h-930v233h-231zM465 2093v232h231v233h234v-233h-232v-232h-233zM930 2558v231h233v-231h-233z" />
<glyph unicode="&#xdb;" d="M0 233v1860h465v-1860h465v1860h465v-1860h-234v-233h-930v233h-231zM233 2325v231h234v-231h-234zM467 2558v231h465v-231h233v-233h-233v233h-465z" />
<glyph unicode="&#xdc;" d="M0 233v1860h465v-1860h465v1860h465v-1860h-234v-233h-930v233h-231zM0 2325v231h465v-231h-465zM930 2325v231h465v-231h-465z" />
<glyph unicode="&#xdd;" d="M0 1163v930h465v-930h465v930h465v-930h-234v-233h-231v-930h-465v930h-234v233h-231zM465 2093v232h231v233h234v-233h-232v-232h-233zM930 2558v231h233v-231h-233z" />
<glyph unicode="&#xde;" d="M0 0v2093h465v-463h698v-233h232v-697h-232v-233h-698v-467h-465zM465 700h465v697h-465v-697z" />
<glyph unicode="&#xdf;" horiz-adv-x="2093" d="M0 0v1860h231v233h930v-233h234v-465h-234v465h-696v-1860h-465zM696 0v233h465v697h-231v233h-234v232h465v-232h234v-233h231v-697h-231v-233h-699z" />
<glyph unicode="&#xe0;" d="M0 233v697h231v233h-231v232h231v-232h699v232h-699v233h930v-233h234v-1395h-1164v233h-231zM461 2093v231h231v-231h-231zM465 233h465v697h-465v-697zM694 1860v233h232v-233h233v-232h-233v232h-232z" />
<glyph unicode="&#xe1;" d="M0 233v697h231v233h-231v232h231v-232h699v232h-699v233h930v-233h234v-1395h-1164v233h-231zM231 1628v232h231v233h234v-233h-232v-232h-233zM465 233h465v697h-465v-697zM696 2093v231h233v-231h-233z" />
<glyph unicode="&#xe2;" d="M0 233v697h231v233h-231v232h231v-232h699v232h-699v233h930v-233h234v-1395h-1164v233h-231zM229 1860v231h234v-231h-234zM463 2093v231h465v-231h233v-233h-233v233h-465zM465 233h465v697h-465v-697z" />
<glyph unicode="&#xe3;" d="M0 233v697h231v233h-231v232h231v-232h699v232h-699v233h930v-233h234v-1395h-1164v233h-231zM0 1628v234h231v231h465v-231h-463v-234h-233zM465 233h465v697h-465v-697zM698 1628v234h463v231h234v-231h-232v-234h-465z" />
<glyph unicode="&#xe4;" d="M0 233v697h231v233h-231v232h231v-232h699v232h-699v233h930v-233h234v-1395h-1164v233h-231zM0 1860v231h465v-231h-465zM465 233h465v697h-465v-697zM930 1860v231h465v-231h-465z" />
<glyph unicode="&#xe5;" d="M0 233v697h231v233h-231v232h231v-232h699v232h-699v233h930v-233h234v-1395h-1164v233h-231zM462 1862v234h234v-234h233v-231h-233v231h-234zM465 233h465v697h-465v-697zM696 2096v231h231v-231h-231zM929 1862v234h232v-234h-232z" />
<glyph unicode="&#xe6;" horiz-adv-x="2791" d="M0 233v697h231v233h-231v232h231v-232h699v232h-699v233h1860v-233h233v-697h-929v-465h696v-233h-1860v233h-231zM465 233h465v697h-465v-697zM1395 930h465v465h-465v-465zM2091 233v232h233v-232h-233z" />
<glyph unicode="&#xe7;" horiz-adv-x="1394" d="M0 233v1162h231v233h699v-233h231v-232h-231v232h-465v-1162h465v-233h-699v233h-231zM462 -231h234v-234h-234v234zM696 0h233v-231h-233v231zM930 233v232h231v-232h-231z" />
<glyph unicode="&#xe8;" d="M0 233v1162h231v233h930v-233h234v-697h-930v-465h696v-233h-930v233h-231zM463 2093v231h231v-231h-231zM465 930h465v465h-465v-465zM696 1860v233h232v-233h233v-232h-233v232h-232zM1161 233v232h234v-232h-234z" />
<glyph unicode="&#xe9;" d="M0 233v1162h231v233h930v-233h234v-697h-930v-465h696v-233h-930v233h-231zM463 1628v232h231v233h234v-233h-232v-232h-233zM465 930h465v465h-465v-465zM928 2093v231h233v-231h-233zM1161 233v232h234v-232h-234z" />
<glyph unicode="&#xea;" d="M0 233v1162h231v233h930v-233h234v-697h-930v-465h696v-233h-930v233h-231zM231 1860v231h234v-231h-234zM465 930h465v465h-465v-465zM465 2093v231h465v-231h233v-233h-233v233h-465zM1161 233v232h234v-232h-234z" />
<glyph unicode="&#xeb;" d="M0 233v1162h231v233h930v-233h234v-697h-930v-465h696v-233h-930v233h-231zM0 1860v231h465v-231h-465zM465 930h465v465h-465v-465zM930 1860v231h465v-231h-465zM1161 233v232h234v-232h-234z" />
<glyph unicode="&#xec;" horiz-adv-x="929" d="M0 0v1628h465v-1628h-465zM0 2093v231h231v-231h-231zM233 1860v233h232v-233h233v-232h-233v232h-232z" />
<glyph unicode="&#xed;" horiz-adv-x="929" d="M-231 1628v232h231v233h234v-233h-232v-232h-233zM0 0v1628h465v-1628h-465zM234 2093v231h233v-231h-233z" />
<glyph unicode="&#xee;" horiz-adv-x="929" d="M-232 1860v231h234v-231h-234zM0 0v1628h465v-1628h-465zM2 2093v231h465v-231h233v-233h-233v233h-465z" />
<glyph unicode="&#xef;" horiz-adv-x="929" d="M-463 1860v231h465v-231h-465zM0 0v1628h465v-1628h-465zM467 1860v231h465v-231h-465z" />
<glyph unicode="&#xf0;" d="M0 233v930h231v232h699v233h-234v232h-465v233h699v-233h231v-232h234v-1395h-234v-233h-930v233h-231zM465 233h465v930h-465v-930z" />
<glyph unicode="&#xf1;" d="M0 0v1628h1161v-233h234v-1395h-465v1395h-465v-1395h-465zM0 1628v234h231v231h465v-231h-463v-234h-233zM698 1628v234h463v231h234v-231h-232v-234h-465z" />
<glyph unicode="&#xf2;" d="M0 233v1162h231v233h930v-233h234v-1162h-234v-233h-930v233h-231zM463 2093v231h231v-231h-231zM465 233h465v1162h-465v-1162zM696 1860v233h232v-233h233v-232h-233v232h-232z" />
<glyph unicode="&#xf3;" d="M0 233v1162h231v233h930v-233h234v-1162h-234v-233h-930v233h-231zM231 1628v232h231v233h234v-233h-232v-232h-233zM465 233h465v1162h-465v-1162zM696 2093v231h233v-231h-233z" />
<glyph unicode="&#xf4;" d="M0 233v1162h231v233h930v-233h234v-1162h-234v-233h-930v233h-231zM229 1860v231h234v-231h-234zM463 2093v231h465v-231h233v-233h-233v233h-465zM465 233h465v1162h-465v-1162z" />
<glyph unicode="&#xf5;" d="M0 233v1162h231v233h930v-233h234v-1162h-234v-233h-930v233h-231zM0 1628v234h231v231h465v-231h-463v-234h-233zM465 233h465v1162h-465v-1162zM698 1628v234h463v231h234v-231h-232v-234h-465z" />
<glyph unicode="&#xf6;" d="M0 233v1162h231v233h930v-233h234v-1162h-234v-233h-930v233h-231zM0 1860v231h465v-231h-465zM465 233h465v1162h-465v-1162zM930 1860v231h465v-231h-465z" />
<glyph unicode="&#xf8;" d="M0 233v1162h231v233h930v-233h234v-1162h-234v-233h-696v-233h-234v466h-231zM465 696h231v-463h234v463h-234v465h232v234h-463v-699zM1161 1628v225h234v-225h-234z" />
<glyph unicode="&#xf9;" d="M0 233v1395h465v-1395h465v1395h465v-1628h-1164v233h-231zM465 2093v231h231v-231h-231zM698 1860v233h232v-233h233v-232h-233v232h-232z" />
<glyph unicode="&#xfa;" d="M0 233v1395h465v-1395h465v1395h465v-1628h-1164v233h-231zM463 1628v232h231v233h234v-233h-232v-232h-233zM928 2093v231h233v-231h-233z" />
<glyph unicode="&#xfb;" d="M0 233v1395h465v-1395h465v1395h465v-1628h-1164v233h-231zM233 1860v231h234v-231h-234zM467 2093v231h465v-231h233v-233h-233v233h-465z" />
<glyph unicode="&#xfc;" d="M0 233v1395h465v-1395h465v1395h465v-1628h-1164v233h-231zM0 1862v231h465v-231h-465zM930 1862v231h465v-231h-465z" />
<glyph unicode="&#xfd;" d="M0 -231h231v-234h699v465h-699v233h-231v1395h465v-1395h465v1395h465v-2093h-234v-231h-930v231h-231v234zM465 1628v232h231v233h234v-233h-232v-232h-233zM930 2093v231h233v-231h-233z" />
<glyph unicode="&#xfe;" d="M0 -465v2558h465v-465h696v-233h234v-1162h-234v-233h-696v-465h-465zM465 233h465v1162h-465v-1162z" />
<glyph unicode="&#xff;" d="M0 -231h231v-234h699v465h-699v233h-231v1395h465v-1395h465v1395h465v-2093h-234v-231h-930v231h-231v234zM0 1860v231h465v-231h-465zM930 1860v231h465v-231h-465z" />
<glyph unicode="&#x178;" d="M0 1163v930h465v-930h465v930h465v-930h-234v-233h-231v-930h-465v930h-234v233h-231zM0 2325v231h465v-231h-465zM930 2325v231h465v-231h-465z" />
<glyph unicode="&#x2c6;" horiz-adv-x="0" d="M231 1860v231h234v-231h-234zM465 2093v231h465v-231h233v-233h-233v233h-465z" />
<glyph unicode="&#x2dc;" horiz-adv-x="0" d="M0 1626v234h231v231h465v-231h-463v-234h-233zM698 1626v234h463v231h234v-231h-232v-234h-465z" />
<glyph unicode="&#x2000;" horiz-adv-x="1394" />
<glyph unicode="&#x2001;" horiz-adv-x="2789" />
<glyph unicode="&#x2002;" horiz-adv-x="1394" />
<glyph unicode="&#x2003;" horiz-adv-x="2789" />
<glyph unicode="&#x2004;" horiz-adv-x="929" />
<glyph unicode="&#x2005;" horiz-adv-x="697" />
<glyph unicode="&#x2006;" horiz-adv-x="464" />
<glyph unicode="&#x2007;" horiz-adv-x="464" />
<glyph unicode="&#x2008;" horiz-adv-x="348" />
<glyph unicode="&#x2009;" horiz-adv-x="557" />
<glyph unicode="&#x200a;" horiz-adv-x="154" />
<glyph unicode="&#x2010;" horiz-adv-x="1163" d="M0 465v233h930v-233h-930z" />
<glyph unicode="&#x2011;" horiz-adv-x="1163" d="M0 465v233h930v-233h-930z" />
<glyph unicode="&#x2012;" horiz-adv-x="1163" d="M0 465v233h930v-233h-930z" />
<glyph unicode="&#x2013;" horiz-adv-x="1163" d="M0 465v233h930v-233h-930z" />
<glyph unicode="&#x2014;" horiz-adv-x="1628" d="M0 465v233h1395v-233h-1395z" />
<glyph unicode="&#x2018;" horiz-adv-x="698" d="M0 1161v699h233v-234h232v-465h-465zM233 1860v231h232v-231h-232z" />
<glyph unicode="&#x2019;" horiz-adv-x="698" d="M0 1161v234h231v-234h-231zM0 1626v465h465v-696h-234v231h-231z" />
<glyph unicode="&#x201a;" horiz-adv-x="698" d="M0 0v465h465v-696h-234v231h-231zM0 -231h231v-234h-231v234z" />
<glyph unicode="&#x201c;" horiz-adv-x="1394" d="M0 1161v699h233v-234h232v-465h-465zM233 1860v231h232v-231h-232zM698 1161v699h232v-234h233v-465h-465zM930 1860v231h233v-231h-233z" />
<glyph unicode="&#x201d;" horiz-adv-x="1394" d="M0 1161v234h231v-234h-231zM0 1626v465h465v-696h-234v231h-231zM698 1161v234h232v-234h-232zM698 1626v465h465v-696h-233v231h-232z" />
<glyph unicode="&#x201e;" horiz-adv-x="1394" d="M0 0v465h465v-698h-234v233h-231zM0 -233h231v-232h-231v232zM698 0v465h465v-698h-231v233h-234zM698 -233h234v-232h-234v232z" />
<glyph unicode="&#x2022;" horiz-adv-x="698" d="M0 696v467h465v-465z" />
<glyph unicode="&#x2026;" horiz-adv-x="1923" d="M113 100q0 47 31.5 78t78.5 31t80 -31t33 -78t-33 -77.5t-80 -30.5t-78.5 30.5t-31.5 77.5zM752 100q0 47 31.5 78t78.5 31t79 -31t32 -78t-32 -77.5t-79 -30.5t-78.5 30.5t-31.5 77.5zM1391 100q0 47 31.5 78t78.5 31t80 -31t33 -78t-33 -77.5t-80 -30.5t-78.5 30.5 t-31.5 77.5z" />
<glyph unicode="&#x202f;" horiz-adv-x="557" />
<glyph unicode="&#x2039;" horiz-adv-x="929" d="M0 465v465h231v-465h-231zM231 930v231h234v-231h-234zM233 231v234h232v-232h233v-233h-233v231h-232zM465 1163v232h233v-232h-233z" />
<glyph unicode="&#x203a;" horiz-adv-x="929" d="M0 0v231h231v234h234v-232h-232v-233h-233zM0 1161v234h231v-232h234v-233h233v-465h-233v465h-232v231h-233z" />
<glyph unicode="&#x205f;" horiz-adv-x="697" />
<glyph unicode="&#x2122;" horiz-adv-x="2091" d="M0 1860v233h930v-233h231v-465h234v-232h-234v232h-231v-234h-232v699h-233v-699h-232v699h-233zM1395 1395v465h231v233h234v-930h-234v232h-231z" />
<glyph unicode="&#x25fc;" horiz-adv-x="1628" d="M0 0v1628h1628v-1628h-1628z" />
<glyph unicode="&#xfb01;" horiz-adv-x="2093" d="M0 1395v233h231v232h234v233h1161v-233h-930v-232h234v-233h-234v-1395h-465v1395h-231zM1161 0v1628h465v-1628h-465z" />
<glyph unicode="&#xfb02;" horiz-adv-x="2093" d="M0 1395v233h231v232h234v233h1161v-2093h-465v1860h-465v-232h234v-233h-234v-1395h-465v1395h-231z" />
</font>
</defs>
</svg>
